<svg width="28" height="30" viewBox="0 0 28 30" fill="none" xmlns="http://www.w3.org/2000/svg">
<path id="Vector" d="M1.93001 14.5596C0.656517 12.3539 0.357959 10.0298 1.03434 7.58751C1.71072 5.1452 3.15421 3.2859 5.3648 2.00962C7.57542 0.733315 9.90294 0.403852 12.3474 1.02123C14.7918 1.63859 16.6477 3.04492 17.9151 5.24022L26.4623 20.0443C27.3718 21.6196 27.5859 23.2788 27.1047 25.0221C26.6236 26.7654 25.5984 28.0901 24.0291 28.996C22.4599 29.902 20.8025 30.1262 19.0568 29.6686C17.3111 29.211 15.9835 28.1946 15.0741 26.6193L7.27817 13.1164C6.73083 12.1684 6.59154 11.175 6.86031 10.1363C7.12906 9.09763 7.73746 8.3046 8.6855 7.75725C9.63355 7.20989 10.6292 7.08762 11.6725 7.39043C12.7158 7.69324 13.5148 8.32504 14.0695 9.28583L21.3132 21.8323C21.4581 22.0833 21.4945 22.3434 21.4224 22.6127C21.3502 22.8819 21.1886 23.089 20.9376 23.2339C20.6866 23.3789 20.4265 23.4153 20.1572 23.3431C19.888 23.271 19.6809 23.1094 19.536 22.8584L12.2727 10.278C12.0176 9.83608 11.6404 9.54039 11.1414 9.39094C10.6423 9.24149 10.1688 9.29605 9.72095 9.55461C9.27313 9.81316 8.98965 10.1881 8.87051 10.6794C8.75139 11.1707 8.81941 11.6373 9.07455 12.0793L16.8751 25.5901C17.4999 26.6725 18.4057 27.3672 19.5922 27.6743C20.7788 27.9814 21.9144 27.8218 22.999 27.1956C24.0708 26.5768 24.7731 25.6742 25.1059 24.4879C25.4388 23.3015 25.2921 22.166 24.6659 21.0814L16.0835 6.21617C15.1067 4.52432 13.6776 3.45217 11.7961 2.99971C9.91473 2.54725 8.11803 2.81522 6.40605 3.80363C4.67147 4.80509 3.54396 6.23962 3.0235 8.10721C2.50303 9.97479 2.73719 11.7649 3.72598 13.4775L11.7405 27.3591C11.8854 27.6101 11.9173 27.8729 11.8361 28.1474C11.7549 28.4218 11.5901 28.6307 11.3418 28.7741C11.0998 28.9138 10.8394 28.9504 10.5606 28.8838C10.2818 28.8171 10.0699 28.6583 9.92496 28.4073L1.93001 14.5596Z" fill="#DADADA"/>
</svg>
