<svg width="83" height="38" viewBox="0 0 83 38" fill="none" xmlns="http://www.w3.org/2000/svg">
<path d="M4.93001 17.5596C3.65652 15.3539 3.35796 13.0298 4.03434 10.5875C4.71072 8.1452 6.15421 6.2859 8.3648 5.00962C10.5754 3.73332 12.9029 3.40385 15.3474 4.02123C17.7918 4.63859 19.6477 6.04492 20.9151 8.24022L29.4623 23.0443C30.3718 24.6196 30.5859 26.2788 30.1047 28.0221C29.6236 29.7654 28.5984 31.0901 27.0291 31.996C25.4599 32.902 23.8025 33.1262 22.0568 32.6686C20.3111 32.211 18.9835 31.1946 18.0741 29.6193L10.2782 16.1164C9.73083 15.1684 9.59154 14.175 9.86031 13.1363C10.1291 12.0976 10.7375 11.3046 11.6855 10.7572C12.6335 10.2099 13.6292 10.0876 14.6725 10.3904C15.7158 10.6932 16.5148 11.325 17.0695 12.2858L24.3132 24.8323C24.4581 25.0833 24.4945 25.3434 24.4224 25.6127C24.3502 25.8819 24.1886 26.089 23.9376 26.2339C23.6866 26.3789 23.4265 26.4153 23.1572 26.3431C22.888 26.271 22.6809 26.1094 22.536 25.8584L15.2727 13.278C15.0176 12.8361 14.6404 12.5404 14.1414 12.3909C13.6423 12.2415 13.1688 12.296 12.721 12.5546C12.2731 12.8132 11.9896 13.1881 11.8705 13.6794C11.7514 14.1707 11.8194 14.6373 12.0746 15.0793L19.8751 28.5901C20.4999 29.6725 21.4057 30.3672 22.5922 30.6743C23.7788 30.9814 24.9144 30.8218 25.999 30.1956C27.0708 29.5768 27.7731 28.6742 28.1059 27.4879C28.4388 26.3015 28.2921 25.166 27.6659 24.0814L19.0835 9.21617C18.1067 7.52432 16.6776 6.45217 14.7961 5.99971C12.9147 5.54725 11.118 5.81522 9.40605 6.80363C7.67147 7.80509 6.54396 9.23962 6.0235 11.1072C5.50303 12.9748 5.73719 14.7649 6.72598 16.4775L14.7405 30.3591C14.8854 30.6101 14.9173 30.8729 14.8361 31.1474C14.7549 31.4218 14.5901 31.6307 14.3418 31.7741C14.0998 31.9138 13.8394 31.9504 13.5606 31.8838C13.2818 31.8171 13.0699 31.6583 12.925 31.4073L4.93001 17.5596Z" fill="#DADADA"/>
<path d="M72.2811 17.1263C72.8593 17.1263 73.3508 16.9239 73.7555 16.5192C74.1603 16.1144 74.3627 15.6229 74.3627 15.0447C74.3627 14.4665 74.1603 13.975 73.7555 13.5702C73.3508 13.1654 72.8593 12.9631 72.2811 12.9631C71.7028 12.9631 71.2113 13.1654 70.8066 13.5702C70.4018 13.975 70.1994 14.4665 70.1994 15.0447C70.1994 15.6229 70.4018 16.1144 70.8066 16.5192C71.2113 16.9239 71.7028 17.1263 72.2811 17.1263ZM61.0249 17.1263C61.6032 17.1263 62.0947 16.9239 62.4994 16.5192C62.9042 16.1144 63.1065 15.6229 63.1065 15.0447C63.1065 14.4665 62.9042 13.975 62.4994 13.5702C62.0947 13.1654 61.6032 12.9631 61.0249 12.9631C60.4467 12.9631 59.9552 13.1654 59.5505 13.5702C59.1457 13.975 58.9433 14.4665 58.9433 15.0447C58.9433 15.6229 59.1457 16.1144 59.5505 16.5192C59.9552 16.9239 60.4467 17.1263 61.0249 17.1263ZM66.653 34.5887C64.52 34.5887 62.5155 34.184 60.6394 33.3744C58.7634 32.5649 57.1315 31.4663 55.7438 30.0785C54.3561 28.6908 53.2574 27.0589 52.4479 25.1829C51.6384 23.3069 51.2336 21.3024 51.2336 19.1694C51.2336 17.0363 51.6384 15.0318 52.4479 13.1558C53.2574 11.2798 54.3561 9.6479 55.7438 8.26016C57.1315 6.87242 58.7634 5.77379 60.6394 4.96427C62.5155 4.15476 64.52 3.75 66.653 3.75C68.786 3.75 70.7905 4.15476 72.6665 4.96427C74.5426 5.77379 76.1744 6.87242 77.5622 8.26016C78.9499 9.6479 80.0486 11.2798 80.8581 13.1558C81.6676 15.0318 82.0724 17.0363 82.0724 19.1694C82.0724 21.3024 81.6676 23.3069 80.8581 25.1829C80.0486 27.0589 78.9499 28.6908 77.5622 30.0785C76.1744 31.4663 74.5426 32.5649 72.6665 33.3744C70.7905 34.184 68.786 34.5887 66.653 34.5887ZM66.653 32.2758C70.3119 32.2758 73.411 31.0061 75.9504 28.4668C78.4898 25.9274 79.7594 22.8282 79.7594 19.1694C79.7594 15.5105 78.4898 12.4113 75.9504 9.87195C73.411 7.33258 70.3119 6.0629 66.653 6.0629C62.9941 6.0629 59.895 7.33258 57.3556 9.87195C54.8162 12.4113 53.5465 15.5105 53.5465 19.1694C53.5465 22.8282 54.8162 25.9274 57.3556 28.4668C59.895 31.0061 62.9941 32.2758 66.653 32.2758ZM66.6339 27.6115C68.1115 27.6115 69.4735 27.2774 70.7199 26.6092C71.9662 25.941 72.9749 25.0107 73.7459 23.8183C73.9001 23.5202 73.8905 23.2298 73.717 22.9471C73.5435 22.6644 73.2833 22.5231 72.9364 22.5231H60.3664C60.0088 22.5231 59.7464 22.6644 59.5794 22.9471C59.4123 23.2298 59.4059 23.5202 59.5601 23.8183C60.3311 25.0107 61.3397 25.941 62.5861 26.6092C63.8325 27.2774 65.1818 27.6115 66.6339 27.6115Z" fill="#DADADA"/>
</svg>
