<svg width="26" height="26" viewBox="0 0 26 26" fill="none" xmlns="http://www.w3.org/2000/svg">
<path d="M11.3588 17.341L17.5882 13.3628C17.8144 13.2189 17.9274 13.0236 17.9274 12.7769C17.9274 12.5302 17.8144 12.3349 17.5882 12.191L11.3588 8.21276C11.1326 8.04829 10.8962 8.03287 10.6495 8.1665C10.4028 8.30014 10.2794 8.51087 10.2794 8.7987V16.7551C10.2794 17.0429 10.4028 17.2536 10.6495 17.3873C10.8962 17.5209 11.1326 17.5055 11.3588 17.341ZM13.2708 25.1124C11.5849 25.1124 9.9916 24.7886 8.49079 24.141C6.98997 23.4933 5.67932 22.6093 4.55885 21.4888C3.43838 20.3684 2.55433 19.0577 1.90672 17.5569C1.25911 16.0561 0.935303 14.4627 0.935303 12.7769C0.935303 11.0705 1.25911 9.46687 1.90672 7.96605C2.55433 6.46523 3.43838 5.15973 4.55885 4.04954C5.67932 2.93934 6.98997 2.06044 8.49079 1.41283C9.9916 0.765213 11.5849 0.441406 13.2708 0.441406C14.9772 0.441406 16.5808 0.765213 18.0816 1.41283C19.5824 2.06044 20.8879 2.93934 21.9981 4.04954C23.1083 5.15973 23.9872 6.46523 24.6349 7.96605C25.2825 9.46687 25.6063 11.0705 25.6063 12.7769C25.6063 14.4627 25.2825 16.0561 24.6349 17.5569C23.9872 19.0577 23.1083 20.3684 21.9981 21.4888C20.8879 22.6093 19.5824 23.4933 18.0816 24.141C16.5808 24.7886 14.9772 25.1124 13.2708 25.1124Z" fill="#5A32A8"/>
</svg>
