<svg width="17" height="17" viewBox="0 0 17 17" fill="none" xmlns="http://www.w3.org/2000/svg">
<path id="Vector" d="M6.41397 12.1001C4.84133 12.1001 3.51036 11.5548 2.42106 10.4644C1.33176 9.37389 0.787109 8.05805 0.787109 6.51684C0.787109 4.97563 1.33235 3.65979 2.42283 2.56931C3.5133 1.47883 4.83278 0.933594 6.38126 0.933594C7.92974 0.933594 9.24558 1.47883 10.3288 2.56931C11.412 3.65979 11.9536 4.97672 11.9536 6.52011C11.9536 7.14314 11.8518 7.74544 11.6483 8.32703C11.4447 8.90862 11.1394 9.45386 10.7323 9.96275L16.0102 15.197C16.141 15.3214 16.2065 15.4798 16.2065 15.672C16.2065 15.8643 16.141 16.0258 16.0102 16.1567C15.8793 16.2875 15.7178 16.3529 15.5255 16.3529C15.3333 16.3529 15.175 16.2875 15.0506 16.1567L9.79446 10.9006C9.35826 11.2786 8.84967 11.573 8.26868 11.7838C7.68769 11.9947 7.06945 12.1001 6.41397 12.1001ZM6.39216 10.7915C7.57352 10.7915 8.57766 10.3735 9.40461 9.53746C10.2316 8.70143 10.645 7.69456 10.645 6.51684C10.645 5.33912 10.2316 4.33225 9.40461 3.49622C8.57766 2.66018 7.57352 2.24217 6.39216 2.24217C5.1987 2.24217 4.18425 2.66018 3.34882 3.49622C2.51339 4.33225 2.09568 5.33912 2.09568 6.51684C2.09568 7.69456 2.51339 8.70143 3.34882 9.53746C4.18425 10.3735 5.1987 10.7915 6.39216 10.7915Z" fill="#353535"/>
</svg>
