<svg width="388" height="83" viewBox="0 0 388 83" fill="none" xmlns="http://www.w3.org/2000/svg">
<path fill-rule="evenodd" clip-rule="evenodd" d="M13.2127 0.789062C6.39998 0.789062 0.877197 6.31184 0.877197 13.1245V70.1762C0.877197 76.9889 6.39997 82.5116 13.2127 82.5116H364.774C369.477 82.5116 373.566 79.8794 375.647 76.0077C378.665 76.7132 382.523 77.2948 387.286 77.5095C384.229 74.9805 378.497 67.993 377.109 58.4225V13.1245C377.109 6.31185 371.587 0.789062 364.774 0.789062H13.2127Z" fill="#EEF2FE"/>
<path d="M375.647 76.0077L375.734 75.6323C375.565 75.5926 375.39 75.6717 375.307 75.8252L375.647 76.0077ZM387.286 77.5095L387.269 77.8946C387.435 77.902 387.587 77.8028 387.646 77.6482C387.706 77.4935 387.66 77.3181 387.532 77.2124L387.286 77.5095ZM377.109 58.4225H376.724C376.724 58.441 376.725 58.4595 376.728 58.4778L377.109 58.4225ZM1.26268 13.1245C1.26268 6.52473 6.61288 1.17455 13.2127 1.17455V0.403579C6.18709 0.403579 0.491713 6.09894 0.491713 13.1245H1.26268ZM1.26268 70.1762V13.1245H0.491713V70.1762H1.26268ZM13.2127 82.1262C6.61286 82.1262 1.26268 76.776 1.26268 70.1762H0.491713C0.491713 77.2018 6.18707 82.8971 13.2127 82.8971V82.1262ZM364.774 82.1262H13.2127V82.8971H364.774V82.1262ZM375.307 75.8252C373.291 79.5769 369.33 82.1262 364.774 82.1262V82.8971C369.625 82.8971 373.841 80.1819 375.986 76.1901L375.307 75.8252ZM387.304 77.1244C382.562 76.9107 378.728 76.332 375.734 75.6323L375.559 76.383C378.602 77.0943 382.484 77.6789 387.269 77.8946L387.304 77.1244ZM376.728 58.4778C378.132 68.1616 383.926 75.2299 387.041 77.8065L387.532 77.2124C384.532 74.7312 378.862 67.8243 377.491 58.3672L376.728 58.4778ZM376.724 13.1245V58.4225H377.495V13.1245H376.724ZM364.774 1.17455C371.374 1.17455 376.724 6.52474 376.724 13.1245H377.495C377.495 6.09895 371.8 0.403579 364.774 0.403579V1.17455ZM13.2127 1.17455H364.774V0.403579H13.2127V1.17455Z" fill="#CFDAFC"/>
</svg>
