<svg width="389" height="67" viewBox="0 0 389 67" fill="none" xmlns="http://www.w3.org/2000/svg">
<path fill-rule="evenodd" clip-rule="evenodd" d="M375.406 1.01562C382.219 1.01562 387.742 6.53842 387.742 13.3511V53.4414C387.742 60.2541 382.219 65.7769 375.406 65.7769H23.8452C20.529 65.7769 17.5185 64.4684 15.3018 62.3395C12.0354 63.3057 7.42392 64.1803 1.33313 64.4548C4.39026 61.9261 10.1214 54.9399 11.5097 45.3712V13.3511C11.5097 6.53841 17.0324 1.01562 23.8452 1.01562H375.406Z" fill="#F9F9F9"/>
<path d="M15.3018 62.3395L15.1924 61.9698C15.3253 61.9305 15.4689 61.9655 15.5688 62.0615L15.3018 62.3395ZM1.33313 64.4548L1.35049 64.8399C1.18491 64.8473 1.03311 64.7481 0.97345 64.5935C0.913818 64.4388 0.959717 64.2634 1.08743 64.1577L1.33313 64.4548ZM11.5097 45.3712H11.8952C11.8952 45.3897 11.8938 45.4082 11.8912 45.4265L11.5097 45.3712ZM387.356 13.3511C387.356 6.75132 382.006 1.40111 375.406 1.40111V0.630141C382.432 0.630141 388.127 6.32552 388.127 13.3511H387.356ZM387.356 53.4414V13.3511H388.127V53.4414H387.356ZM375.406 65.3914C382.006 65.3914 387.356 60.0412 387.356 53.4414H388.127C388.127 60.467 382.432 66.1624 375.406 66.1624V65.3914ZM23.8452 65.3914H375.406V66.1624H23.8452V65.3914ZM15.5688 62.0615C17.7166 64.1242 20.6325 65.3914 23.8452 65.3914V66.1624C20.4255 66.1624 17.3204 64.8126 15.0348 62.6175L15.5688 62.0615ZM1.31577 64.0697C7.379 63.7964 11.9593 62.9263 15.1924 61.9698L15.4111 62.7091C12.1115 63.6852 7.46884 64.5641 1.35049 64.8399L1.31577 64.0697ZM11.8912 45.4265C10.4865 55.1086 4.69363 62.1755 1.57883 64.7518L1.08743 64.1577C4.08688 61.6768 9.75635 54.7713 11.1282 45.3158L11.8912 45.4265ZM11.8952 13.3511V45.3712H11.1242V13.3511H11.8952ZM23.8452 1.40111C17.2453 1.40111 11.8952 6.75131 11.8952 13.3511H11.1242C11.1242 6.32551 16.8195 0.630141 23.8452 0.630141V1.40111ZM375.406 1.40111H23.8452V0.630141H375.406V1.40111Z" fill="#ECECEC"/>
</svg>
