<svg width="10" height="11" viewBox="0 0 10 11" fill="none" xmlns="http://www.w3.org/2000/svg">
<path d="M4.71104 5.89683V7.4835C4.71104 7.58266 4.74478 7.66579 4.81225 7.73287C4.87973 7.79995 4.96334 7.8335 5.06308 7.8335C5.16283 7.8335 5.24576 7.79995 5.31187 7.73287C5.37799 7.66579 5.41104 7.58266 5.41104 7.4835V5.89683H7.00938C7.10854 5.89683 7.19167 5.86309 7.25875 5.79562C7.32583 5.72814 7.35938 5.64453 7.35938 5.54479C7.35938 5.44504 7.32583 5.36211 7.25875 5.296C7.19167 5.22989 7.10854 5.19683 7.00938 5.19683H5.41104V3.51683C5.41104 3.41766 5.37731 3.33454 5.30983 3.26745C5.24235 3.20037 5.15874 3.16683 5.059 3.16683C4.95925 3.16683 4.87632 3.20037 4.81021 3.26745C4.7441 3.33454 4.71104 3.41766 4.71104 3.51683V5.19683H3.04271C2.94354 5.19683 2.86042 5.23057 2.79333 5.29804C2.72625 5.36552 2.69271 5.44913 2.69271 5.54887C2.69271 5.64862 2.72625 5.73155 2.79333 5.79766C2.86042 5.86377 2.94354 5.89683 3.04271 5.89683H4.71104ZM5.02914 10.1668C4.38566 10.1668 3.78094 10.0443 3.21498 9.79933C2.64902 9.55433 2.1541 9.21988 1.73021 8.796C1.30632 8.37211 0.971875 7.87689 0.726875 7.31035C0.481875 6.74382 0.359375 6.13848 0.359375 5.49433C0.359375 4.85018 0.481875 4.24484 0.726875 3.67831C0.971875 3.11177 1.30632 2.6185 1.73021 2.1985C2.1541 1.7785 2.64931 1.446 3.21585 1.201C3.78239 0.955996 4.38773 0.833496 5.03188 0.833496C5.67602 0.833496 6.28136 0.955996 6.8479 1.201C7.41444 1.446 7.90771 1.7785 8.32771 2.1985C8.74771 2.6185 9.08021 3.11239 9.32521 3.68016C9.57021 4.24794 9.69271 4.85357 9.69271 5.49706C9.69271 6.14055 9.57021 6.74527 9.32521 7.31123C9.08021 7.87718 8.74771 8.37139 8.32771 8.79385C7.90771 9.21631 7.41382 9.55075 6.84604 9.79718C6.27826 10.0436 5.67263 10.1668 5.02914 10.1668Z" fill="#5A32A8"/>
</svg>
