<svg width="10" height="11" viewBox="0 0 10 11" fill="none" xmlns="http://www.w3.org/2000/svg">
<path d="M6.5009 8.746C6.14375 8.746 5.84268 8.6227 5.59768 8.3761C5.35268 8.12949 5.23018 7.82762 5.23018 7.47047C5.23018 7.11332 5.35348 6.81225 5.60008 6.56725C5.84668 6.32225 6.14855 6.19975 6.5057 6.19975C6.86285 6.19975 7.16393 6.32305 7.40893 6.56965C7.65393 6.81625 7.77643 7.11812 7.77643 7.47527C7.77643 7.83242 7.65313 8.1335 7.40652 8.3785C7.15992 8.6235 6.85805 8.746 6.5009 8.746ZM1.03018 10.5835C0.820176 10.5835 0.636426 10.5047 0.478926 10.3472C0.321426 10.1897 0.242676 10.006 0.242676 9.796V1.6585C0.242676 1.4485 0.321426 1.26475 0.478926 1.10725C0.636426 0.949746 0.820176 0.870996 1.03018 0.870996H1.8833V0.503496C1.8833 0.384496 1.92355 0.284746 2.00405 0.204246C2.08455 0.123746 2.1843 0.0834961 2.3033 0.0834961C2.42602 0.0834961 2.52889 0.123746 2.61191 0.204246C2.69492 0.284746 2.73643 0.384496 2.73643 0.503496V0.870996H7.19893V0.503496C7.19893 0.384496 7.23918 0.284746 7.31968 0.204246C7.40018 0.123746 7.49993 0.0834961 7.61893 0.0834961C7.74164 0.0834961 7.84451 0.123746 7.92753 0.204246C8.01054 0.284746 8.05205 0.384496 8.05205 0.503496V0.870996H8.90518C9.11518 0.870996 9.29893 0.949746 9.45643 1.10725C9.61393 1.26475 9.69268 1.4485 9.69268 1.6585V9.796C9.69268 10.006 9.61393 10.1897 9.45643 10.3472C9.29893 10.5047 9.11518 10.5835 8.90518 10.5835H1.03018ZM1.03018 9.796H8.90518V4.15225H1.03018V9.796ZM1.03018 3.36475H8.90518V1.6585H1.03018V3.36475Z" fill="#353535"/>
</svg>
